<?xml version="1.0" encoding="UTF-8"?>
<svg xmlns="http://www.w3.org/2000/svg" width="1280" height="420" viewBox="0 0 1280 420">
<defs>
<linearGradient id="bg" x1="0" y1="0" x2="1" y2="1">
<stop offset="0%" stop-color="#0d1117"/>
<stop offset="100%" stop-color="#111827"/>
</linearGradient>
<filter id="shadow" x="-20%" y="-20%" width="140%" height="140%">
<feDropShadow dx="0" dy="8" stdDeviation="10" flood-color="#000" flood-opacity="0.35"/>
</filter>
<style><![CDATA[
.t{font-family:"JetBrains Mono","Fira Code","Consolas",monospace}
.dim{fill:#8b949e}
.white{fill:#f0f6fc}
.green{fill:#3fb950}
.blue{fill:#58a6ff}
]]></style>
</defs>

<rect width="1280" height="420" fill="url(#bg)"/>

<rect x="40" y="30" width="1200" height="360" rx="18" fill="#161b22" filter="url(#shadow)"/>

<circle cx="80" cy="58" r="7" fill="#ff5f56"/>
<circle cx="102" cy="58" r="7" fill="#ffbd2e"/>
<circle cx="124" cy="58" r="7" fill="#27c93f"/>

<text x="75" y="95" class="t dim" font-size="18">Last login: Wed Jul 01 2026 · github.com</text>

<text x="75" y="130" class="t" font-size="22">
<tspan class="green">ahmet@github</tspan><tspan class="white">:</tspan><tspan class="blue">~</tspan><tspan class="white">$ neofetch</tspan>
</text>

<!-- simple arch logo -->
<g transform="translate(90,165)">
<path d="M60 0 L0 110 L28 95 L60 35 L92 95 L120 110 Z" fill="#1793d1"/>
<path d="M60 62 L40 96 L60 84 L80 96 Z" fill="#f0f6fc"/>
</g>

<text x="260" y="175" class="t white" font-size="34" font-weight="700">Ahmet Can Urhan</text>
<text x="260" y="205" class="t dim" font-size="18">Computer Engineering Student</text>

<text x="260" y="245" class="t dim" font-size="18">Focus</text>

<text x="260" y="275" class="t white" font-size="19">• Linux</text>
<text x="260" y="305" class="t white" font-size="19">• System Administration</text>
<text x="560" y="275" class="t white" font-size="19">• Software Development</text>
<text x="560" y="305" class="t white" font-size="19">• Cybersecurity</text>

<text x="75" y="360" class="t" font-size="22">
<tspan class="green">ahmet@github</tspan><tspan class="white">:</tspan><tspan class="blue">~</tspan><tspan class="white">$ </tspan>
<tspan class="white">█</tspan>
<animate attributeName="opacity" values="1;0;1" dur="1.2s" repeatCount="indefinite"/>
</text>
</svg>